# xmcd
#
# Track frame offsets:
#	150
#	13953
#	31503
#	50360
#	67260
#	82476
#	97359
#	112353
#	129930
#	144429
#	158852
#	170630
#	186169
#	200609
#	214721
#	230787
#	247451
#	263372
#	280394
#
# Disc length: 3915 seconds
#
# Revision: 1
# Processed by: cddbd v1.5.2PL0 Copyright (c) Steve Scherf et al.
# Submitted via: audiograbber 1.83.01
#
DISCID=300f4913
DTITLE=Various Artist - Hott Country 182
DYEAR=2011
DGENRE=Country
TTITLE0=Toby Keith - Somewhere Else
TTITLE1=Taylor Swift - Mean
TTITLE2=Brad Paisley Feat Alabama - Old Alabama ( Single Edit )
TTITLE3=Eric Church - Homeboy
TTITLE4=Janedear Girls - Shotgun Girl
TTITLE5=Eli Young Band - Crazy Girl
TTITLE6=George Canyon - Surrender
TTITLE7=Martina McBride - Teenage Daughters
TTITLE8=Jimmy Rankin - Here In My Heart
TTITLE9=Dean Brody - People Know You By Your First Name
TTITLE10=Codie Prevost - Cruising Song
TTITLE11=Shane Yellowbird - I Can Help You With That
TTITLE12=Johnny Reid - Love Thing
TTITLE13=Dierks Bentley - Am I The Only One
TTITLE14=Frankie Ballard - A Buncha Girls
TTITLE15=Emerson Drive - Let Your Love Speak
TTITLE16=Blake Shelton - Honey Bee
TTITLE17=Chris Cummings - Give Me Tonight
TTITLE18=Ronnie Milsap - I'm A Stand By My Woman Man (1976)
EXTD=April 2011
EXTT0=
EXTT1=
EXTT2=
EXTT3=
EXTT4=
EXTT5=
EXTT6=
EXTT7=
EXTT8=
EXTT9=
EXTT10=
EXTT11=
EXTT12=
EXTT13=
EXTT14=
EXTT15=
EXTT16=
EXTT17=
EXTT18=
PLAYORDER=
